<svg xmlns="http://www.w3.org/2000/svg" viewBox="0 0 182.8 203.1"><defs><style>.cls-1{fill:#272d33;}</style></defs><g id="Layer_2" data-name="Layer 2"><g id="Layer_1-2" data-name="Layer 1"><path class="cls-1" d="M182.75,23.08S171.7,19.83,140.16,11.7C106.78,3.1,91.4,0,91.4,0S76,3.1,42.64,11.7C11.11,19.83.06,23.08.06,23.08s-1.63,32.5,12.68,91.34c11.54,47.5,54.61,73.79,78.66,88.68,24.06-14.89,67.12-41.18,78.67-88.68C184.37,55.58,182.75,23.08,182.75,23.08ZM90.89,125.68,39.63,139.41V128a17,17,0,0,1,12.58-16.39l62.3-16.71A31.9,31.9,0,0,1,90.89,125.68Zm46.66-50.45L39.63,101.46V90a17,17,0,0,1,12.58-16.4l109-29.2A31.94,31.94,0,0,1,137.55,75.23Z"/></g></g></svg>